<?xml version="1.0" standalone="no"?>
<!DOCTYPE svg PUBLIC "-//W3C//DTD SVG 20010904//EN"
 "http://www.w3.org/TR/2001/REC-SVG-20010904/DTD/svg10.dtd">
<svg version="1.0" xmlns="http://www.w3.org/2000/svg"
 width="500.000000pt" height="500.000000pt" viewBox="0 0 500.000000 500.000000"
 preserveAspectRatio="xMidYMid meet">

<g transform="translate(0.000000,500.000000) scale(0.100000,-0.100000)"
fill="#000000" stroke="none">
<path d="M2619 4145 c117 -43 162 -63 276 -128 95 -54 112 -65 203 -138 188
-152 344 -377 416 -600 112 -349 49 -726 -157 -945 -70 -75 -162 -142 -175
-129 -4 4 -1 10 6 12 7 3 19 18 28 35 9 17 35 54 58 82 48 59 109 193 132 293
24 103 14 366 -19 488 -42 154 -69 212 -155 335 -234 334 -661 547 -1092 544
-172 -1 -398 -36 -505 -78 -44 -18 -37 -17 115 20 201 48 529 43 705 -12 150
-47 300 -119 413 -199 181 -128 317 -313 389 -530 35 -104 37 -117 37 -245 1
-116 -2 -144 -22 -202 -39 -112 -47 -104 -47 45 0 243 -73 431 -239 614 -148
163 -367 283 -608 333 -96 20 -127 22 -280 17 -173 -5 -257 -19 -388 -62 -135
-44 -344 -158 -455 -248 -127 -104 -271 -269 -358 -412 -52 -86 -46 -92 9 -9
167 250 350 419 582 538 188 95 378 141 587 140 313 -2 562 -103 752 -307 70
-75 127 -171 155 -260 28 -92 17 -101 -29 -22 -124 211 -360 367 -627 414 -75
14 -269 14 -361 1 -195 -29 -461 -169 -658 -349 -89 -81 -256 -336 -311 -474
-74 -186 -107 -365 -108 -590 -1 -87 3 -162 8 -167 5 -5 9 51 9 138 0 81 3
174 7 207 10 84 49 233 93 350 119 322 374 591 678 716 137 57 218 73 372 73
151 0 229 -15 350 -69 67 -29 174 -105 175 -122 0 -18 -3 -17 -68 15 -116 58
-163 67 -337 66 -145 0 -168 -3 -250 -28 -344 -105 -609 -370 -733 -732 -53
-155 -66 -240 -66 -434 1 -141 5 -194 22 -274 38 -173 105 -343 191 -490 43
-73 100 -156 107 -156 6 0 4 3 -52 90 -239 372 -298 817 -159 1210 66 186 231
405 385 510 145 98 354 157 476 134 38 -7 38 -7 -46 -30 -338 -89 -573 -336
-667 -699 -26 -100 -28 -125 -28 -280 1 -191 18 -285 81 -447 167 -424 516
-730 994 -872 70 -21 52 -4 -20 19 -154 50 -414 190 -511 277 -190 168 -301
312 -374 486 -72 172 -101 331 -92 516 10 225 77 401 207 549 38 43 151 127
172 127 5 0 -15 -30 -45 -67 -138 -172 -199 -350 -199 -573 1 -285 114 -542
337 -766 208 -209 454 -328 774 -374 104 -16 377 -8 482 14 137 28 389 109
377 122 -3 2 -39 -10 -82 -26 -589 -227 -1265 -51 -1584 413 -164 239 -213
520 -130 745 11 28 24 52 30 52 5 0 7 -8 4 -17 -16 -41 -7 -248 14 -328 54
-204 183 -390 370 -532 194 -146 433 -223 699 -223 215 0 391 41 586 135 94
45 259 143 275 164 3 3 36 33 74 66 124 107 240 246 314 375 33 59 20 49 -24
-17 -127 -194 -288 -352 -470 -464 -224 -137 -439 -199 -689 -200 -305 -1
-565 105 -754 306 -64 68 -155 238 -166 310 l-7 40 47 -68 c179 -262 430 -404
746 -424 429 -26 869 228 1115 643 146 248 206 479 202 789 l-1 140 -8 -155
c-11 -237 -43 -375 -136 -590 -109 -252 -313 -476 -543 -597 -172 -90 -314
-127 -490 -127 -149 1 -226 17 -343 73 -81 39 -178 114 -161 123 5 3 52 -12
104 -33 313 -126 685 -41 962 219 143 135 271 344 333 542 93 303 54 711 -97
1025 -32 66 -105 194 -118 205 -3 3 -32 40 -64 83 -32 42 -60 77 -62 77 -10 0
-1 -18 25 -47 15 -18 52 -70 82 -115 30 -46 57 -84 62 -86 4 -2 7 -8 7 -13 0
-4 16 -41 36 -81 191 -392 190 -838 -4 -1198 -125 -232 -322 -403 -537 -464
-86 -25 -279 -39 -281 -21 -2 11 68 35 103 35 33 0 173 62 239 106 119 79 252
230 318 361 189 376 146 833 -114 1218 -136 201 -346 384 -560 487 -111 53
-109 53 -220 88 -126 40 -138 37 -21 -5z m64 -1054 c101 -35 180 -84 253 -157
243 -241 242 -626 -1 -870 -241 -242 -627 -241 -871 1 -242 242 -242 627 1
870 80 80 175 135 287 166 92 24 243 20 331 -10z"/>
<path d="M2390 3019 c-83 -16 -201 -82 -265 -149 -45 -48 -55 -64 -44 -71 8
-5 103 -9 212 -9 108 0 197 -3 197 -7 0 -4 -22 -87 -50 -185 -27 -98 -50 -188
-50 -201 0 -26 103 -397 110 -397 3 0 20 57 39 128 19 70 43 151 53 181 10 30
18 67 18 82 0 16 -22 109 -50 207 -27 98 -50 181 -50 185 0 4 97 7 216 7 119
0 214 -4 212 -8 -1 -5 -73 -136 -157 -293 -85 -156 -181 -331 -212 -389 -31
-58 -62 -105 -69 -105 -12 0 -24 21 -273 480 -80 149 -152 279 -160 289 -14
19 -15 19 -30 -5 -8 -13 -26 -53 -38 -89 -33 -93 -33 -259 1 -345 34 -88 79
-153 150 -218 216 -195 536 -179 735 35 105 114 152 243 142 393 -10 141 -66
256 -175 357 -122 113 -293 160 -462 127z"/>
<path d="M1545 3885 c-25 -12 -26 -14 -5 -9 28 7 60 23 45 23 -5 0 -23 -6 -40
-14z"/>
<path d="M4092 3100 c0 -14 2 -19 5 -12 2 6 2 18 0 25 -3 6 -5 1 -5 -13z"/>
<path d="M4180 2135 c-7 -9 -10 -18 -7 -21 3 -3 10 4 17 15 13 25 8 27 -10 6z"/>
<path d="M903 1895 c0 -22 2 -30 4 -17 2 12 2 30 0 40 -3 9 -5 -1 -4 -23z"/>
<path d="M911 1824 c0 -11 3 -14 6 -6 3 7 2 16 -1 19 -3 4 -6 -2 -5 -13z"/>
</g>
</svg>
