<?xml version="1.0" standalone="no"?>
<!DOCTYPE svg PUBLIC "-//W3C//DTD SVG 20010904//EN"
 "http://www.w3.org/TR/2001/REC-SVG-20010904/DTD/svg10.dtd">
<svg version="1.0" xmlns="http://www.w3.org/2000/svg"
 width="500.000000pt" height="500.000000pt" viewBox="0 0 500.000000 500.000000"
 preserveAspectRatio="xMidYMid meet">

<g transform="translate(0.000000,500.000000) scale(0.100000,-0.100000)"
fill="#000000" stroke="none">
<path d="M2835 4130 c-3 -5 23 -23 57 -40 233 -118 454 -338 581 -579 56 -106
112 -272 128 -383 17 -117 6 -351 -21 -453 -42 -156 -154 -340 -250 -412 -142
-105 -209 -137 -129 -61 339 323 365 862 61 1298 -25 36 -91 110 -146 165
-348 345 -853 473 -1378 349 -60 -14 -110 -30 -114 -35 -8 -14 11 -11 126 17
86 21 139 26 295 31 168 5 203 3 302 -16 274 -53 469 -147 652 -318 311 -288
431 -726 280 -1023 -17 -34 -32 -60 -34 -58 -2 2 3 32 10 68 28 129 8 332 -45
469 -97 248 -328 476 -590 583 -165 68 -296 92 -485 92 -288 -1 -558 -87 -810
-258 -106 -71 -308 -268 -387 -376 -63 -86 -131 -200 -124 -207 2 -3 15 15 27
39 64 126 243 333 384 444 175 136 340 216 560 271 99 25 127 27 290 27 156 0
192 -3 270 -23 332 -86 574 -281 673 -544 25 -66 43 -197 20 -142 -109 257
-333 441 -628 517 -109 28 -328 35 -448 14 -406 -71 -755 -341 -955 -741 -113
-226 -183 -578 -159 -805 l8 -85 1 135 c4 569 264 1037 714 1284 208 114 481
153 711 102 93 -21 221 -85 301 -151 78 -64 88 -88 20 -46 -343 210 -848 115
-1165 -217 -239 -252 -354 -552 -352 -922 1 -276 67 -513 214 -772 56 -98 159
-242 167 -234 3 3 -8 22 -24 43 -91 119 -200 321 -249 465 -52 154 -68 259
-69 453 0 138 4 201 18 268 48 229 159 437 315 594 178 180 368 264 586 262
131 -1 176 -13 90 -23 -197 -23 -417 -139 -553 -292 -107 -120 -195 -290 -237
-461 -24 -95 -27 -128 -28 -278 0 -152 3 -182 27 -280 31 -128 54 -190 108
-299 122 -244 320 -455 574 -608 70 -42 200 -108 212 -108 15 1 -31 31 -82 54
-85 39 -260 163 -351 249 -196 185 -308 370 -381 627 -25 88 -27 110 -27 290
-1 188 0 198 28 285 15 50 51 135 80 190 65 128 173 240 286 299 l75 38 -46
-41 c-130 -114 -233 -298 -269 -484 -122 -610 316 -1195 1015 -1358 142 -33
411 -38 580 -10 131 21 271 58 227 60 -13 1 -47 -6 -75 -14 -88 -24 -259 -45
-378 -45 -433 0 -828 188 -1065 507 -195 262 -249 597 -135 848 17 37 33 66
36 63 3 -2 -2 -36 -10 -74 -20 -95 -19 -194 5 -305 40 -195 118 -343 254 -481
328 -336 844 -437 1341 -262 218 77 485 263 651 453 85 97 165 211 157 225 -3
5 -13 -4 -22 -21 -25 -46 -172 -222 -237 -283 -207 -194 -432 -317 -687 -375
-160 -36 -389 -36 -548 0 -208 47 -351 125 -499 273 -74 75 -94 102 -138 192
-28 58 -56 129 -62 159 -11 57 -13 108 -3 81 60 -168 203 -333 381 -437 118
-70 298 -119 467 -130 161 -10 415 46 576 127 248 126 478 361 611 624 100
198 171 506 167 718 -2 59 -2 57 -9 -27 -24 -275 -73 -460 -176 -660 -135
-263 -337 -458 -600 -581 -204 -96 -392 -121 -619 -83 -97 16 -250 89 -333
159 -74 60 -81 81 -14 41 199 -122 509 -139 766 -42 303 115 557 392 676 736
66 191 87 456 51 663 -21 125 -56 253 -92 340 -78 187 -226 426 -299 481 -31
23 -29 20 17 -38 29 -36 49 -69 46 -74 -3 -6 -2 -7 4 -4 17 11 137 -191 195
-328 131 -313 145 -706 34 -998 -122 -320 -344 -549 -616 -635 -131 -41 -292
-51 -364 -22 -17 7 -14 9 15 9 134 3 343 86 464 186 177 145 281 311 352 563
25 90 27 110 27 282 0 166 -3 195 -26 285 -45 173 -99 298 -191 440 -106 165
-294 343 -482 458 -108 65 -142 80 -150 67z m-214 -1006 c280 -52 490 -306
491 -594 2 -265 -148 -482 -401 -584 -71 -28 -84 -30 -211 -30 -127 0 -140 2
-211 30 -274 110 -434 371 -399 651 38 303 297 536 601 542 26 1 84 -6 130
-15z"/>
<path d="M2390 3045 c-246 -55 -421 -272 -421 -520 -1 -227 134 -419 356 -505
50 -20 78 -24 175 -24 97 0 125 4 175 24 222 86 357 277 357 504 -1 181 -92
348 -246 448 -112 72 -270 101 -396 73z m100 -262 c0 -4 -22 -87 -50 -185 -27
-98 -50 -189 -50 -203 0 -14 22 -105 50 -202 27 -97 48 -179 45 -181 -2 -2
-10 9 -18 25 -8 15 -103 189 -211 387 -108 197 -196 360 -196 362 0 2 97 4
215 4 118 0 215 -3 215 -7z m448 -1 c-12 -31 -421 -772 -424 -769 -2 2 19 83
46 181 28 97 50 188 50 201 0 14 -22 105 -50 203 -27 98 -50 181 -50 185 0 4
97 7 216 7 119 0 214 -4 212 -8z"/>
<path d="M861 1914 c0 -11 3 -14 6 -6 3 7 2 16 -1 19 -3 4 -6 -2 -5 -13z"/>
<path d="M3420 1084 l-25 -15 25 7 c28 7 35 12 29 18 -2 2 -15 -2 -29 -10z"/>
<path d="M2300 850 c8 -5 20 -10 25 -10 6 0 3 5 -5 10 -8 5 -19 10 -25 10 -5
0 -3 -5 5 -10z"/>
</g>
</svg>
